:SAMPLES-PER-SECOND 30
:FULLY-SPECIFIED
:DEGREES
268
root  -2.24538 40.5342 -1.71366 -37.9995 87.9035 -39.0534
RightUpLeg  -14.4886 -9.77468 -5.5172
RightLeg  22.9013 -3.13244 -1.66325
RightFoot  -4.14395 -0.259761 3.67554
RightToes  0.00048216 0.542163 -0.142577
Spine  8.34725 -0.802881 3.5672
Spine1  5.51318 -0.558997 -0.995913
HEad  -12.1296 2.42455 -1.24113
LeftShoulder1  8.65938 -12.6039 -46.9061
LeftArm  0.923585 8.4573 -24.2423
LeftForeArm  20.3529 -20.7693 -4.1502
LeftHand  -0.25398 0.0180481 5.50724
RightShoulder  5.16758 9.1198 34.9756
RightArm  -17.3005 -24.8338 34.6543
RightForeArm  -3.76163 10.7672 5.34666
RightHand  -1.1684 2.27269 -17.8122
LeftUpLeg  5.09714 7.02227 5.64612
LeftLeg  6.19539 8.59376 -3.31534
LeftFoot  -11.1696 0.0738934 -4.48942
LeftToes  1.06248e-005 4.65855e-005 -8.185e-006
269
root  -2.49035 40.566 -2.00906 -40.3712 88.2431 -41.1519
RightUpLeg  -12.5437 -8.34738 -5.58714
RightLeg  25.5734 -3.35616 -1.96285
RightFoot  -5.36487 -0.244239 3.97638
RightToes  0.00048216 0.542163 -0.142577
Spine  7.37516 -0.736223 2.745
Spine1  5.83818 -0.726038 -0.31915
HEad  -11.8138 2.13496 -1.21344
LeftShoulder1  8.7901 -12.641 -47.5167
LeftArm  -2.42127 10.0447 -24.165
LeftForeArm  24.1043 -14.9336 -5.70539
LeftHand  -0.25398 0.0180481 5.50724
RightShoulder  5.21764 9.11306 35.3869
RightArm  -15.4199 -24.216 35.4816
RightForeArm  -0.298095 12.8566 5.44767
RightHand  -1.05557 2.0363 -16.6465
LeftUpLeg  4.91782 6.71689 4.97569
LeftLeg  6.23941 8.67037 -3.33694
LeftFoot  -10.9114 0.081518 -4.28635
LeftToes  1.06248e-005 4.65855e-005 -8.185e-006
270
root  -2.64497 40.551 -2.25202 -38.1778 88.8892 -38.7784
RightUpLeg  -9.72434 -8.40071 -5.79163
RightLeg  26.1049 -2.02408 -1.30937
RightFoot  -5.90399 -0.290903 5.29257
RightToes  0.00048216 0.542163 -0.142577
Spine  6.05958 -0.69078 1.78055
Spine1  6.21513 -0.864349 0.101882
HEad  -11.4817 1.7953 -1.17847
LeftShoulder1  8.98861 -12.8086 -48.0991
LeftArm  -5.61856 12.3652 -23.9498
LeftForeArm  26.5987 -10.3353 -6.61919
LeftHand  -0.25398 0.0180481 5.50724
RightShoulder  5.28817 9.11399 35.9308
RightArm  -13.7551 -23.498 36.3168
RightForeArm  3.16389 14.8549 5.21688
RightHand  -1.23702 2.86754 -17.5243
LeftUpLeg  4.84841 6.52669 4.25739
LeftLeg  6.13883 8.34314 -3.61697
LeftFoot  -10.9607 0.078918 -3.92997
LeftToes  1.06248e-005 4.65855e-005 -8.185e-006
271
root  -2.72433 40.5073 -2.46142 -38.0217 89.8173 -38.6544
RightUpLeg  -6.14033 -10.2708 -6.3494
RightLeg  24.0021 -0.782902 -0.631814
RightFoot  -7.04951 -0.30172 6.78301
RightToes  0.00048216 0.542163 -0.142577
Spine  4.3979 -0.609221 0.88497
Spine1  6.59095 -0.837487 0.0935969
HEad  -10.9662 1.22837 -1.30108
LeftShoulder1  9.22422 -13.0884 -48.5333
LeftArm  -6.20627 15.2776 -23.7406
LeftForeArm  26.7848 -7.65354 -6.74427
LeftHand  -0.25398 0.0180481 5.50724
RightShoulder  5.38201 9.17034 36.4715
RightArm  -12.5291 -22.7015 37.144
RightForeArm  4.49705 16.0581 5.08295
RightHand  -1.52104 4.0254 -18.9355
LeftUpLeg  4.56393 6.18428 3.20765
LeftLeg  6.19433 8.23774 -3.8345
LeftFoot  -11.0206 0.0751 -3.26767
LeftToes  1.06248e-005 4.65855e-005 -8.185e-006
272
root  -2.74287 40.5077 -2.65248 103.617 89.2259 102.751
RightUpLeg  -2.22148 -13.341 -7.20091
RightLeg  19.2664 -0.991088 -0.42911
RightFoot  -9.20714 -0.186115 6.34013
RightToes  0.00048216 0.542163 -0.142577
Spine  2.46209 -0.391678 0.293471
Spine1  7.12066 -0.545134 0.0431338
HEad  -10.5915 0.42786 -1.53828
LeftShoulder1  9.37515 -13.3158 -48.6624
LeftArm  -5.61052 18.4379 -23.6054
LeftForeArm  26.9952 -6.86237 -6.77248
LeftHand  -0.25398 0.0180481 5.50724
RightShoulder  5.4534 9.22572 36.8372
RightArm  -11.3928 -21.5418 37.857
RightForeArm  3.77512 16.3187 5.21979
RightHand  -1.66766 4.64746 -19.4699
LeftUpLeg  4.52748 5.57756 2.02363
LeftLeg  5.50735 8.51344 -4.06131
LeftFoot  -10.6193 0.0814131 -2.81322
LeftToes  1.06248e-005 4.65855e-005 -8.185e-006
273
root  -2.71791 40.5585 -2.83936 97.2804 88.7103 96.258
RightUpLeg  1.2723 -14.0408 -8.21397
RightLeg  13.4825 -3.77464 0.420677
RightFoot  -10.7669 -0.0890565 3.75255
RightToes  0.00048216 0.542163 -0.142577
Spine  0.645022 0.0689414 0.486396
Spine1  7.85455 0.159134 -0.32712
HEad  -10.7553 -0.474928 -1.86853
LeftShoulder1  9.38282 -13.3824 -48.5089
LeftArm  -4.84841 21.4425 -23.5129
LeftForeArm  27.546 -7.45698 -6.89572
LeftHand  -0.25398 0.0180481 5.50724
RightShoulder  5.48871 9.24969 37.0276
RightArm  -10.0037 -19.7835 38.3129
RightForeArm  2.63191 16.0267 5.51609
RightHand  -1.69672 4.7959 -19.5186
LeftUpLeg  5.14872 4.9182 1.02009
LeftLeg  3.8605 9.25875 -4.35209
LeftFoot  -9.9005 0.0888002 -2.35919
LeftToes  1.06248e-005 4.65855e-005 -8.185e-006
274
root  -2.68821 40.6172 -3.04571 68.6154 88.4892 67.6555
RightUpLeg  3.66805 -10.8182 -8.95222
RightLeg  8.76455 -7.83293 2.17277
RightFoot  -10.4076 -0.0849057 1.80034
RightToes  0.00048216 0.542163 -0.142577
Spine  -0.58378 0.755098 1.90333
Spine1  8.46727 1.2647 -1.57775
HEad  -11.3071 -1.3241 -2.36311
LeftShoulder1  9.33005 -13.354 -48.3158
LeftArm  -4.04277 24.0712 -23.4329
LeftForeArm  27.394 -8.65315 -6.97071
LeftHand  -0.25398 0.0180481 5.50724
RightShoulder  5.51573 9.2772 37.1426
RightArm  -8.13663 -17.5823 38.366
RightForeArm  2.67199 15.6946 5.79655
RightHand  -1.74135 4.93019 -19.7657
LeftUpLeg  6.01097 4.42391 0.327539
LeftLeg  2.27565 10.5368 -4.50659
LeftFoot  -9.29367 0.0836416 -1.55564
LeftToes  1.06248e-005 4.65855e-005 -8.185e-006
275
root  -2.69038 40.6638 -3.27378 35.2321 88.172 34.3279
RightUpLeg  4.86867 -10.3182 -9.35109
RightLeg  6.06105 -6.91847 3.25276
RightFoot  -8.96718 -0.110018 2.28531
RightToes  0.00048216 0.542163 -0.142577
Spine  -1.12804 1.4966 4.29658
Spine1  8.45779 2.48862 -3.47123
HEad  -11.6426 -2.00717 -2.91784
LeftShoulder1  9.29887 -13.357 -48.1441
LeftArm  -3.69092 26.4075 -23.6114
LeftForeArm  26.6068 -9.69402 -6.83733
LeftHand  -0.25398 0.0180481 5.50724
RightShoulder  5.5218 9.30591 37.0949
RightArm  -5.87544 -15.4087 38.1188
RightForeArm  3.81646 15.6911 5.94989
RightHand  -1.76539 4.96559 -19.9651
LeftUpLeg  6.36976 4.16983 0.0489769
LeftLeg  1.66002 11.9417 -4.42286
LeftFoot  -9.0316 0.0719441 -0.869119
LeftToes  1.06248e-005 4.65855e-005 -8.185e-006
276
root  -2.74238 40.6863 -3.4756 13.7498 87.5648 12.7169
RightUpLeg  4.97948 -10.5082 -9.4839
RightLeg  5.15283 -5.34485 3.70356
RightFoot  -8.00183 -0.15666 3.54
RightToes  0.00048216 0.542163 -0.142577
Spine  -1.11331 2.11867 6.34938
Spine1  7.67287 3.42924 -5.08309
HEad  -11.4804 -2.35671 -3.23209
LeftShoulder1  9.25631 -13.4151 -47.7542
LeftArm  -4.28402 28.6004 -24.4403
LeftForeArm  25.7362 -10.3371 -6.51117
LeftHand  -0.25398 0.0180481 5.50724
RightShoulder  5.45933 9.29209 36.6658
RightArm  -3.67772 -13.5056 37.8988
RightForeArm  4.65584 16.1501 5.94863
RightHand  -1.6703 4.57905 -19.6187
LeftUpLeg  6.06816 4.18427 0.0721766
LeftLeg  1.90603 12.9225 -4.27702
LeftFoot  -9.11006 0.0684751 -0.707911
LeftToes  1.06248e-005 4.65855e-005 -8.185e-006
277
root  -2.83681 40.6831 -3.61797 4.73825 87.0069 3.64129
RightUpLeg  4.3426 -10.3491 -9.23345
RightLeg  5.60792 -5.18323 3.59181
RightFoot  -7.78372 -0.161196 3.48825
RightToes  0.00048216 0.542163 -0.142577
Spine  -0.576193 2.42768 7.09283
Spine1  6.57395 3.78398 -5.58007
HEad  -11.2666 -2.16817 -3.15195
LeftShoulder1  9.17779 -13.4858 -47.1418
LeftArm  -5.2779 30.4821 -25.8073
LeftForeArm  24.5797 -10.8885 -6.16177
LeftHand  -0.25398 0.0180481 5.50724
RightShoulder  5.34777 9.25964 35.9201
RightArm  -1.86931 -11.6011 37.8286
RightForeArm  4.22391 17.1162 5.7842
RightHand  -1.48014 3.87748 -18.709
LeftUpLeg  5.62981 4.36937 0.211552
LeftLeg  2.4612 13.3828 -4.21688
LeftFoot  -9.40061 0.0678549 -0.669371
LeftToes  1.06248e-005 4.65855e-005 -8.185e-006
278
root  -2.94712 40.6618 -3.70591 1.84025 86.7675 1.06737
RightUpLeg  3.55096 -10.3683 -8.93335
RightLeg  7.16971 -5.27157 3.00858
RightFoot  -7.84031 -0.135406 2.68054
RightToes  0.00048216 0.542163 -0.142577
Spine  0.35119 2.31611 6.52615
Spine1  5.88673 3.52529 -4.99244
HEad  -11.5727 -1.49257 -2.79325
LeftShoulder1  9.16452 -13.5932 -46.7698
LeftArm  -5.53338 31.5234 -26.8937
LeftForeArm  23.2722 -11.4918 -6.02884
LeftHand  -0.25398 0.0180481 5.50724
RightShoulder  5.27632 9.28551 35.2901
RightArm  -0.402095 -9.44154 37.6734
RightForeArm  2.59578 18.8034 5.41572
RightHand  -1.29812 3.25753 -17.6025
LeftUpLeg  5.56658 4.58791 0.300313
LeftLeg  3.03477 13.4449 -4.20032
LeftFoot  -9.74863 0.0652158 -0.476582
LeftToes  1.06248e-005 4.65855e-005 -8.185e-006
279
root  -3.04498 40.6177 -3.75477 1.83236 86.8045 1.64963
RightUpLeg  2.77791 -11.3768 -8.84344
RightLeg  9.56446 -4.17752 2.08374
RightFoot  -8.16691 -0.132716 2.80841
RightToes  0.00048216 0.542163 -0.142577
Spine  1.30738 1.96173 5.39122
Spine1  5.85185 2.98073 -4.11417
HEad  -12.2794 -0.752848 -2.26481
LeftShoulder1  9.30739 -13.8013 -46.9313
LeftArm  -4.55564 31.2933 -26.9925
LeftForeArm  23.0178 -11.7286 -6.23608
LeftHand  -0.25398 0.0180481 5.50724
RightShoulder  5.28912 9.37757 35.0976
RightArm  0.325674 -7.40785 37.2476
RightForeArm  0.513316 21.4 5.02959
RightHand  -1.20157 2.9878 -16.8336
LeftUpLeg  5.72915 4.83721 0.360935
LeftLeg  3.81737 13.1453 -4.18309
LeftFoot  -10.228 0.0664145 -0.5321
LeftToes  1.06248e-005 4.65855e-005 -8.185e-006
280
root  -3.11539 40.552 -3.77045 3.32534 86.7429 3.61255
RightUpLeg  1.53345 -12.9424 -8.73836
RightLeg  12.6796 -2.27455 0.828365
RightFoot  -8.72922 -0.152918 4.11644
RightToes  0.00048216 0.542163 -0.142577
Spine  2.07801 1.6891 4.41907
Spine1  5.9746 2.59821 -3.72353
HEad  -12.6828 -0.322027 -1.52916
LeftShoulder1  9.5297 -14.0782 -47.3044
LeftArm  -3.01684 29.9051 -26.2536
LeftForeArm  24.6438 -11.2017 -6.70532
LeftHand  -0.25398 0.0180481 5.50724
RightShoulder  5.34613 9.48017 35.2103
RightArm  -0.670535 -6.15267 36.7222
RightForeArm  -0.792723 24.6124 5.26099
RightHand  -1.22817 3.14136 -16.8926
LeftUpLeg  5.77603 5.19537 0.474523
LeftLeg  4.75372 12.7436 -4.26401
LeftFoot  -10.8749 0.0691996 -0.992375
LeftToes  1.06248e-005 4.65855e-005 -8.185e-006
281
root  -3.15902 40.473 -3.75856 4.60599 86.2605 5.16113
RightUpLeg  -0.635517 -13.0006 -8.36346
RightLeg  16.8102 -1.53182 -0.542517
RightFoot  -8.93423 -0.177789 5.53376
RightToes  0.00048216 0.542163 -0.142577
Spine  2.88802 1.59698 3.84247
Spine1  5.70851 2.51369 -3.97846
HEad  -12.3255 -0.0962268 -0.656243
LeftShoulder1  9.68796 -14.3048 -47.4817
LeftArm  -1.8662 27.9096 -25.2777
LeftForeArm  27.2372 -10.2191 -7.19811
LeftHand  -0.25398 0.0180481 5.50724
RightShoulder  5.40768 9.59769 35.309
RightArm  -2.36214 -5.74535 36.4478
RightForeArm  -1.32496 27.8207 6.07831
RightHand  -1.34786 3.54829 -17.6877
LeftUpLeg  5.67854 5.65045 0.634743
LeftLeg  5.694 12.6794 -4.4233
LeftFoot  -11.6189 0.0660834 -1.51021
LeftToes  1.06248e-005 4.65855e-005 -8.185e-006
282
root  -3.17329 40.3912 -3.72845 4.92536 85.4222 5.78892
RightUpLeg  -3.43339 -10.6521 -8.0276
RightLeg  21.9388 -2.7504 -1.46093
RightFoot  -8.41336 -0.21492 6.17162
RightToes  0.00048216 0.542163 -0.142577
Spine  3.99442 1.50877 3.43864
Spine1  5.1318 2.47867 -4.50079
HEad  -11.372 0.254018 0.0820588
LeftShoulder1  9.7643 -14.4248 -47.5365
LeftArm  -1.29266 25.7944 -24.3171
LeftForeArm  29.1158 -9.50958 -7.4933
LeftHand  -0.25398 0.0180481 5.50724
RightShoulder  5.47729 9.78219 35.2605
RightArm  -2.85093 -5.62358 36.5288
RightForeArm  -1.44808 30.5093 6.7457
RightHand  -1.43304 3.73593 -18.4084
LeftUpLeg  5.72315 6.09538 0.782757
LeftLeg  6.5533 13.0025 -4.52727
LeftFoot  -12.3575 0.0560708 -2.02489
LeftToes  1.06248e-005 4.65855e-005 -8.185e-006
